<?xml version="1.0" encoding="utf-8"?>
<!-- Generator: Adobe Illustrator 19.0.0, SVG Export Plug-In . SVG Version: 6.00 Build 0)  -->
<svg version="1.1" id="Layer_1" xmlns="http://www.w3.org/2000/svg" xmlns:xlink="http://www.w3.org/1999/xlink" x="0px" y="0px"
	 viewBox="0 0 64 64" style="enable-background:new 0 0 64 64;" xml:space="preserve">
<style type="text/css">
	.st1{fill:#000000;}
</style>
<g id="XMLID_19_">
	<polygon id="XMLID_23_" class="st1" points="28.555,27.282 28.052,27.282 27.338,35.392 27.979,35.449 	"/>
	<path id="XMLID_415_" class="st1" d="M26.979,33.576c0,0-1.847-0.397-2.334,3.921c1.316-0.3,2.609-0.874,3.157-1.135
		c0.073-0.035,0.12-0.106,0.126-0.191l0.024-0.334l-0.648-0.057c-0.214-0.019-0.372-0.207-0.353-0.421l0.156-1.771L26.979,33.576z"
		/>
	<path id="XMLID_416_" class="st1" d="M24.868,44.861c0,0-0.318,1.948,2.111,2.919c0,0,2.132-0.787,1.989-2.919
		c0,0,0.688-1.34,1.368-3.148l-5.755-0.108C24.633,42.572,24.724,43.649,24.868,44.861z"/>
	<path id="XMLID_417_" class="st1" d="M21.3,33.33c0.674,0.229,1.214,0.709,1.599,1.362l2.607-7.561
		c-0.136-0.085-0.253-0.202-0.333-0.346c-0.35-0.634-1.167-2.272-1.19-3.777c-0.002-0.079-0.034-0.175-0.122-0.208l-0.858-0.329
		l-3.77,10.936C19.92,33.148,20.638,33.105,21.3,33.33z"/>
	<path id="XMLID_418_" class="st1" d="M8.24,40.525c-3.784,2.701-1.816,9.917-0.995,12.4c0.144,0.131,0.295,0.244,0.462,0.321h0.706
		c0,0-2.043-9.135,2.452-13.851C9.236,39.856,8.261,40.511,8.24,40.525z"/>
	<path id="XMLID_429_" class="st1" d="M25.492,39.728v-0.122c0-0.582-0.32-1.104-0.814-1.412c-0.589-0.367-1.348-1.084-1.737-2.448
		c-0.647-2.27-2.781-2.743-4.415-1.534c-0.253,0.187-0.566,0.268-0.881,0.272c-2.295,0.029-11.069,0.445-13.68,5.038
		c0,0-3.74,6.101,2.493,14.403h0.727c0,0-4.052-10.234,0.831-13.718c0,0,4.679-3.285,11.066-0.584c0,0,2.351,0.974,4.234,1.645
		C24.38,41.645,25.492,40.856,25.492,39.728z"/>
	<path id="XMLID_430_" class="st1" d="M28.676,14.107l0.559,0v-0.859l-0.601-1.011c-0.036-0.06-0.055-0.129-0.055-0.199v-0.752
		h-1.517c0,0.013,0.007,0.024,0.005,0.037C26.828,13.876,28.6,14.099,28.676,14.107z"/>
	<path id="XMLID_431_" class="st1" d="M29.624,14.107l4.935-0.002v-0.965l0.656-1.102V9.916c0-0.292-0.237-0.528-0.529-0.528H34.3
		c-0.292,0-0.528,0.237-0.528,0.528v1.699c0,0.292-0.237,0.528-0.529,0.528H30.94c-0.292,0-0.528-0.237-0.528-0.528V9.916
		c0-0.292-0.237-0.528-0.529-0.528h-0.387c-0.292,0-0.529,0.237-0.529,0.528v2.123l0.656,1.102V14.107z"/>
	<path id="XMLID_432_" class="st1" d="M25.519,17.045l3.672-0.948h6.731c0.288,0,0.521-0.233,0.521-0.521v-0.562
		c0-0.288-0.233-0.521-0.521-0.521h-7.289c0,0-2.231-0.244-1.952-3.207l-1.414,0.381c-0.235,0.063-0.399,0.277-0.399,0.52v4.353
		C24.868,16.881,25.189,17.13,25.519,17.045z"/>
	<path id="XMLID_433_" class="st1" d="M21.977,21.661L24,22.437c0.232,0.089,0.368,0.316,0.371,0.565
		c0.021,1.408,0.791,2.96,1.142,3.595c0.102,0.185,0.296,0.296,0.507,0.296h4.636l-1.279-2.465
		c-0.043-0.083-0.065-0.175-0.065-0.268v-1.196c-0.086,0-0.171-0.018-0.24-0.073c-0.094-0.074-0.149-0.187-0.149-0.306v-4.268
		l-6.795,0.685c-0.297,0.03-0.523,0.28-0.523,0.578v1.536C21.604,21.359,21.752,21.575,21.977,21.661z"/>
	<path id="XMLID_434_" class="st1" d="M37.444,22.964c-0.033-0.008-0.067-0.014-0.1-0.021l-1.133,2.875l0.212,1.076h1.863
		c0.211,0,0.405-0.114,0.507-0.305c0.35-0.655,1.12-2.254,1.142-3.706c0.004-0.256,0.139-0.49,0.371-0.582l2.023-0.8
		c0.225-0.089,0.373-0.311,0.373-0.559v-1.583c0-0.308-0.226-0.565-0.523-0.596l-4.254-0.442v4.267c0,0.119-0.055,0.232-0.148,0.305
		c-0.07,0.054-0.154,0.083-0.241,0.083C37.505,22.975,37.474,22.972,37.444,22.964z"/>
	<path id="XMLID_435_" class="st1" d="M35.74,22.662l0.355,2.39l0.863-2.191C36.549,22.777,36.141,22.711,35.74,22.662z"/>
	<path id="XMLID_436_" class="st1" d="M29.699,22.901v1.26c0,0.031,0.008,0.062,0.022,0.09l0.486,0.936h1.196l-0.37-2.497
		C30.437,22.763,29.975,22.846,29.699,22.901z"/>
	<path id="XMLID_437_" class="st1" d="M40.448,22.662c-0.09,0.036-0.124,0.145-0.125,0.227c-0.024,1.544-0.838,3.23-1.187,3.883
		c-0.1,0.185-0.256,0.321-0.437,0.408l3.3,8.252c0.332-1.178,1.081-2.01,2.063-2.28c0.388-0.107,0.795-0.098,1.2-0.027l-4.27-10.678
		L40.448,22.662z"/>
	<path id="XMLID_438_" class="st1" d="M56.086,40.208c-0.021-0.015-1.286-0.9-3.342-1.31c5.999,3.978,3.67,14.323,3.67,14.323h0.3
		c0-0.047,0-0.094,0.017-0.139C56.769,52.985,60.363,43.378,56.086,40.208z"/>
	<path id="XMLID_439_" class="st1" d="M29.311,22.586c0,0,0.638-0.155,1.657-0.282l-0.005-0.033
		c-0.029-0.194,0.027-0.39,0.153-0.539c0.127-0.149,0.31-0.235,0.505-0.238l0.327-0.004l-0.041-0.309
		c-0.049-0.358,0.068-0.713,0.319-0.973c0.251-0.26,0.6-0.389,0.962-0.354c0.552,0.054,0.996,0.494,1.056,1.045l0.06,0.561
		l0.656-0.008c0.367,0.015,0.626,0.242,0.678,0.573v0.002l0.036,0.236c0.611,0.07,1.235,0.172,1.863,0.324v-4.307h-8.225V22.586z"/>
	<path id="XMLID_440_" class="st1" d="M35.593,16.486h-6.352l-1.549,0.4v1.166l1.58-0.159c0.006-0.001,0.013,0.002,0.019,0.002
		c0.007,0,0.013-0.004,0.02-0.004h6.282V16.486z"/>
	<path id="XMLID_441_" class="st1" d="M31.038,26.88l0.622-0.003l-0.197-1.301h-1.054L31,26.714
		C31.027,26.766,31.036,26.823,31.038,26.88z"/>
	<path id="XMLID_442_" class="st1" d="M30.064,38.638c0.172-0.62,0.799-0.943,1.186-1.088c-0.008-1.886,0.327-2.98,1.022-3.342
		c0.163-0.085,0.324-0.108,0.481-0.11l-1.034-6.834l-1.02,0.005c-0.015,0.002-0.028,0.011-0.043,0.011h-1.711l-0.628,8.917
		c-0.016,0.222-0.145,0.418-0.346,0.514c-0.568,0.271-1.815,0.82-3.116,1.132c0.01,0.006,0.02,0.014,0.029,0.02
		c0.625,0.389,0.997,1.04,0.997,1.742v0.122c0,0.579-0.26,1.118-0.686,1.499l6.399,0.12c-0.28-0.37-0.544-0.684-0.769-0.904
		C30.166,39.801,29.91,39.193,30.064,38.638z"/>
	<path id="XMLID_443_" class="st1" d="M33.879,33.779c0.098,0.029,0.191,0.031,0.289,0.014l1.326-0.242
		c0.1-0.018,0.203-0.075,0.308-0.168c0.364-0.323,0.732-0.464,1.096-0.426l-1.645-10.872c-0.021-0.142-0.144-0.246-0.288-0.244
		l-1.01,0.013l-0.098-0.912c-0.04-0.372-0.335-0.664-0.707-0.7c-0.505-0.049-0.925,0.385-0.858,0.889l0.099,0.744l-0.765,0.01
		c-0.174,0.002-0.306,0.158-0.28,0.33l1.752,11.577C33.346,33.717,33.613,33.704,33.879,33.779z"/>
	<path id="XMLID_444_" class="st1" d="M60.107,39.231c-2.817-5.149-13.309-4.894-13.309-4.894c-1.554-1.493-3.789-1.13-4.435,1.226
		c-0.44,1.604-1.101,1.946-1.478,2.001c0.44,1.02,0.786,2.29,0.94,3.857c1.167-0.294,4.146-2.093,4.146-2.093
		c5.973-2.623,10.348,0.568,10.348,0.568c4.566,3.385,0.777,13.325,0.777,13.325h0.68C63.604,45.157,60.107,39.231,60.107,39.231z"
		/>
	<path id="XMLID_445_" class="st1" d="M38.068,34.475c-0.305-0.222-0.862-1.82-2.006-0.802c-0.143,0.127-0.309,0.226-0.497,0.26
		l-1.326,0.242c-0.149,0.027-0.304,0.025-0.449-0.017c-0.005-0.002-0.011-0.003-0.017-0.005c-0.935-0.267-1.676,0.816-1.104,1.603
		c1.436,1.978,4.749,7.552,2.621,14.594l-0.073,0.212c-0.601,1.9,1.015,3.3,1.853,3.877c0.302,0.208,0.695,0.227,1.028,0.074
		c2.176-1,2.299-3.126,2.296-3.642c-0.001-0.087,0.012-0.172,0.035-0.256C43.391,39.551,39.543,35.553,38.068,34.475z"/>
	<path id="XMLID_446_" class="st1" d="M32.353,35.984c-0.245-0.336-0.312-0.741-0.23-1.125c-0.286,0.418-0.504,1.258-0.482,2.853
		c0.575,0.482,3.168,4.433,3.932,8.209C35.64,41.173,33.488,37.546,32.353,35.984z"/>
	<path id="XMLID_447_" class="st1" d="M31.336,37.979c-0.011-0.01-0.009-0.025-0.017-0.036c-0.576,0.234-1.599,0.879-0.222,2.223
		c1.29,1.259,3.808,5.29,4.217,8.411c0.035-0.185,0.056-0.365,0.083-0.548c0.097-4.104-3.38-9.525-3.963-10.004
		C31.399,38.02,31.364,38.005,31.336,37.979z"/>
</g>
</svg>
