<?xml version="1.0" encoding="utf-8"?>
<!-- Generator: Adobe Illustrator 19.0.0, SVG Export Plug-In . SVG Version: 6.00 Build 0)  -->
<svg version="1.1" id="Layer_1" xmlns="http://www.w3.org/2000/svg" xmlns:xlink="http://www.w3.org/1999/xlink" x="0px" y="0px"
	 viewBox="0 0 64 64" style="enable-background:new 0 0 64 64;" xml:space="preserve">
<style type="text/css">
	.st1{fill:#000000;}
</style>
<g id="XMLID_647_">
	<path id="XMLID_663_" class="st1" d="M8.58,37.265c-1.854,0-3.357,1.503-3.357,3.357c0,1.854,1.503,3.357,3.357,3.357
		c1.854,0,3.357-1.503,3.357-3.357C11.938,38.768,10.434,37.265,8.58,37.265z M8.58,41.92c-0.716,0-1.297-0.581-1.297-1.297
		c0-0.716,0.581-1.297,1.297-1.297c0.716,0,1.297,0.581,1.297,1.297C9.877,41.339,9.297,41.92,8.58,41.92z"/>
	<path id="XMLID_666_" class="st1" d="M16.349,37.265c-1.854,0-3.357,1.503-3.357,3.357c0,1.854,1.503,3.357,3.357,3.357
		c1.854,0,3.357-1.503,3.357-3.357C19.706,38.768,18.203,37.265,16.349,37.265z M16.349,41.92c-0.716,0-1.297-0.581-1.297-1.297
		c0-0.716,0.581-1.297,1.297-1.297c0.716,0,1.297,0.581,1.297,1.297C17.646,41.339,17.065,41.92,16.349,41.92z"/>
	<path id="XMLID_669_" class="st1" d="M24.117,37.265c-1.854,0-3.357,1.503-3.357,3.357c0,1.854,1.503,3.357,3.357,3.357
		c1.854,0,3.357-1.503,3.357-3.357C27.475,38.768,25.972,37.265,24.117,37.265z M24.117,41.92c-0.716,0-1.297-0.581-1.297-1.297
		c0-0.716,0.581-1.297,1.297-1.297c0.716,0,1.297,0.581,1.297,1.297C25.415,41.339,24.834,41.92,24.117,41.92z"/>
	<path id="XMLID_670_" class="st1" d="M60.515,33.353c0.011-0.036,0.022-0.072,0.022-0.111V20.423c0-0.222-0.18-0.402-0.402-0.402
		c-0.222,0-0.402,0.18-0.402,0.402v11.612h-5.605V20.423c0-0.222-0.18-0.402-0.402-0.402c-0.222,0-0.402,0.18-0.402,0.402v12.819
		c0,0.039,0.012,0.075,0.022,0.111H53.32h-1.53c0.011-0.036,0.022-0.072,0.022-0.111V20.423c0-0.222-0.18-0.402-0.402-0.402
		c-0.222,0-0.402,0.18-0.402,0.402v11.612h-5.605V20.423c0-0.222-0.18-0.402-0.402-0.402c-0.222,0-0.402,0.18-0.402,0.402v12.819
		c0,0.078,0.028,0.147,0.067,0.208c-0.556,0.112-1.091,0.322-1.568,0.64l-2.55,1.7c-0.595,0.397-1.278,0.631-1.985,0.704
		c0.07-0.072,0.113-0.17,0.113-0.278V23.397c0-0.222-0.18-0.402-0.402-0.402c-0.222,0-0.402,0.18-0.402,0.402v11.612h-5.605V23.397
		c0-0.222-0.18-0.402-0.402-0.402c-0.222,0-0.402,0.18-0.402,0.402v12.819c0,0.128,0.064,0.237,0.157,0.311h-1.826
		c0.093-0.074,0.157-0.183,0.157-0.311V23.397c0-0.222-0.18-0.402-0.402-0.402s-0.402,0.18-0.402,0.402v11.612h-5.605V23.397
		c0-0.222-0.18-0.402-0.402-0.402c-0.222,0-0.402,0.18-0.402,0.402v12.819c0,0.128,0.064,0.237,0.157,0.311h-1.826
		c0.093-0.074,0.157-0.183,0.157-0.311V23.397c0-0.222-0.18-0.402-0.402-0.402s-0.402,0.18-0.402,0.402v11.612h-5.605V23.397
		c0-0.222-0.18-0.402-0.402-0.402c-0.222,0-0.402,0.18-0.402,0.402v12.819c0,0.128,0.064,0.237,0.157,0.311h-1.826
		c0.093-0.074,0.157-0.183,0.157-0.311V23.397c0-0.222-0.18-0.402-0.402-0.402c-0.222,0-0.402,0.18-0.402,0.402v11.612H6.09V23.397
		c0-0.222-0.18-0.402-0.402-0.402c-0.222,0-0.402,0.18-0.402,0.402v12.819c0,0.128,0.064,0.237,0.157,0.311H1.965v2.703h3.342
		c0.543-1.271,1.806-2.165,3.273-2.165s2.73,0.894,3.273,2.165h1.222c0.543-1.271,1.806-2.165,3.273-2.165s2.73,0.894,3.273,2.165
		h1.222c0.543-1.271,1.805-2.165,3.273-2.165c1.468,0,2.73,0.894,3.273,2.165h14.515v0v3.946H41.78c-0.222,0-0.402,0.18-0.402,0.402
		c0,0.222,0.18,0.402,0.402,0.402h1.056c0.222,0,0.402-0.18,0.402-0.402c0-0.222-0.18-0.402-0.402-0.402H42.71v-3.068h3.834v3.068
		h-0.126c-0.222,0-0.402,0.18-0.402,0.402c0,0.222,0.18,0.402,0.402,0.402h1.056c0.222,0,0.402-0.18,0.402-0.402
		c0-0.222-0.18-0.402-0.402-0.402h-0.126v-7.342c0-0.222-0.18-0.402-0.402-0.402c-0.222,0-0.402,0.18-0.402,0.402v3.469H42.71
		v-0.073c0-0.015-0.007-0.028-0.009-0.043c0.462-0.062,0.914-0.193,1.335-0.398l2.306-1.12v-1.835c0-0.333,0.271-0.603,0.603-0.603
		c0.333,0,0.603,0.271,0.603,0.603v1.249l0.691-0.336c0.301-0.146,0.618-0.257,0.944-0.332l3.655-0.831
		c0.319-0.073,0.645-0.109,0.972-0.109h8.223v-2.122H60.515z"/>
</g>
</svg>
