<?xml version="1.0" encoding="utf-8"?>
<!-- Generator: Adobe Illustrator 19.0.0, SVG Export Plug-In . SVG Version: 6.00 Build 0)  -->
<svg version="1.1" id="Layer_1" xmlns="http://www.w3.org/2000/svg" xmlns:xlink="http://www.w3.org/1999/xlink" x="0px" y="0px"
	 viewBox="0 0 64 64" style="enable-background:new 0 0 64 64;" xml:space="preserve">
<style type="text/css">
	.st0{fill:#4AA230;}
	.st1{fill:#2C2B2B;}
</style>
<path id="XMLID_39_" class="st0" d="M54.181,63.197H9.819c-4.979,0-9.016-4.036-9.016-9.016V9.819c0-4.979,4.036-9.016,9.016-9.016
	h44.363c4.979,0,9.016,4.036,9.016,9.016v44.363C63.197,59.161,59.161,63.197,54.181,63.197z"/>
<g id="XMLID_576_">
	<path id="XMLID_577_" class="st1" d="M33.361,18.167v5.141h-0.34v11.65h0.34v2.391h1.361v-2.391h0.34v-11.65h-0.34v-5.141
		c0-0.712-0.307-1.388-0.843-1.857l-2.111-1.847l-0.896,1.024l2.111,1.847C33.222,17.544,33.361,17.848,33.361,18.167z"/>
	<path id="XMLID_599_" class="st1" d="M49.503,34.495c-4.141,0-7.497,3.357-7.497,7.497s3.357,7.497,7.497,7.497
		s7.497-3.357,7.497-7.497S53.644,34.495,49.503,34.495z M49.503,44.889c-1.6,0-2.897-1.297-2.897-2.897
		c0-1.6,1.297-2.897,2.897-2.897c1.6,0,2.897,1.297,2.897,2.897C52.4,43.592,51.103,44.889,49.503,44.889z"/>
	<path id="XMLID_602_" class="st1" d="M21.55,38.653c-3.006,0-5.442,2.437-5.442,5.442c0,3.006,2.437,5.442,5.442,5.442
		s5.442-2.437,5.442-5.442C26.993,41.089,24.556,38.653,21.55,38.653z M21.55,46.198c-1.161,0-2.103-0.941-2.103-2.103
		s0.941-2.103,2.103-2.103c1.161,0,2.103,0.941,2.103,2.103S22.712,46.198,21.55,46.198z"/>
	<path id="XMLID_606_" class="st1" d="M9.816,38.653c-3.006,0-5.442,2.437-5.442,5.442c0,3.006,2.437,5.442,5.442,5.442
		s5.442-2.437,5.442-5.442C15.258,41.089,12.821,38.653,9.816,38.653z M9.816,46.198c-1.161,0-2.103-0.941-2.103-2.103
		s0.941-2.103,2.103-2.103s2.103,0.941,2.103,2.103S10.977,46.198,9.816,46.198z"/>
	<path id="XMLID_610_" class="st1" d="M58.961,30.474L49.8,28.638c-1.025-0.142-1.91-0.792-2.352-1.728l-1.645-4.164
		c-0.388-0.821-1.117-1.424-1.994-1.658c-2.883-0.77-5.493-1.317-8.16-1.556c-0.206-0.018-0.403,0.009-0.587,0.068v3.368
		c0.188,0,0.34,0.152,0.34,0.34v11.65c0,0.188-0.152,0.34-0.34,0.34v2.051c0,0,0,0,0,0H20.032v-0.518
		c0-0.518-0.42-0.937-0.937-0.937h-6.831c-0.518,0-0.937,0.42-0.937,0.937v0.518H3.088c-0.188,0-0.34,0.152-0.34,0.34v3.646
		c0,0.188,0.152,0.34,0.34,0.34h1.483c0.918-1.982,2.921-3.363,5.245-3.363s4.327,1.381,5.245,3.363h1.245
		c0.918-1.982,2.921-3.363,5.245-3.363s4.327,1.381,5.245,3.363h7.246h1.814h5.842c0.168-4.166,3.6-7.506,7.807-7.506
		c4.207,0,7.639,3.34,7.807,7.506h3.176c0.423,0,0.765-0.343,0.765-0.765v-7.807C61.252,31.778,60.274,30.656,58.961,30.474z
		 M44.873,28.523h-6.122c-0.412,0-0.745-0.379-0.745-0.847v-4.084c0-0.468,0.334-0.847,0.745-0.847h4.487
		c0.292,0,0.557,0.194,0.678,0.496l1.635,4.084C45.776,27.887,45.416,28.523,44.873,28.523z M61.251,37.519H60.07
		c-0.13,0-0.236,0.106-0.236,0.236v3.921h-0.34v-3.921c0-0.318,0.258-0.576,0.576-0.576h1.181V37.519z"/>
</g>
</svg>
