<?xml version="1.0" encoding="utf-8"?>
<!-- Generator: Adobe Illustrator 19.0.0, SVG Export Plug-In . SVG Version: 6.00 Build 0)  -->
<svg version="1.1" id="Layer_1" xmlns="http://www.w3.org/2000/svg" xmlns:xlink="http://www.w3.org/1999/xlink" x="0px" y="0px"
	 viewBox="0 0 64 64" style="enable-background:new 0 0 64 64;" xml:space="preserve">
<style type="text/css">
	.st0{fill:#4AA230;}
	.st1{fill:#2C2B2B;}
</style>
<path id="XMLID_41_" class="st0" d="M54.181,63.197H9.819c-4.979,0-9.016-4.036-9.016-9.016V9.819c0-4.979,4.036-9.016,9.016-9.016
	h44.363c4.979,0,9.016,4.036,9.016,9.016v44.363C63.197,59.161,59.161,63.197,54.181,63.197z"/>
<g id="XMLID_25_">
	<path id="XMLID_26_" class="st1" d="M23.617,20.789c-0.066-0.04-0.141-0.061-0.218-0.061h-1.304c-0.232,0-0.419,0.188-0.419,0.419
		v1.746l4.638-0.005L23.617,20.789z"/>
	<path id="XMLID_318_" class="st1" d="M19.016,21.876l0.926,0.074l-0.898,0.071c0.004,0.032,0.011,0.062,0.018,0.092l1.52,0.073
		l-1.492,0.072c0.015,0.042,0.032,0.08,0.051,0.119l1.199,0.068l-1.115,0.063c0.107,0.161,0.248,0.296,0.414,0.385l1.779-0.003
		v-1.742c0-0.161,0.064-0.303,0.158-0.419h-1.45c-0.01,0.003-0.017,0.012-0.029,0.012c-0.597,0-1.082,0.509-1.082,1.134
		C19.016,21.875,19.016,21.875,19.016,21.876z"/>
	<path id="XMLID_319_" class="st1" d="M19.177,22.891c-0.258-0.255-0.42-0.616-0.42-1.017c0-0.474,0.226-0.892,0.57-1.147h-0.435
		c-0.61,0-1.104,0.494-1.104,1.104v0.213c0,0.338,0.152,0.641,0.392,0.844L19.177,22.891z"/>
	<polygon id="XMLID_320_" class="st1" points="49.005,39.093 48.068,39.093 48.068,41.367 47.866,41.367 47.866,42.239 
		49.207,42.239 49.207,41.367 49.005,41.367 	"/>
	<polygon id="XMLID_321_" class="st1" points="31.519,39.093 30.582,39.093 30.582,41.367 30.38,41.367 30.38,42.239 31.721,42.239 
		31.721,41.367 31.519,41.367 	"/>
	<path id="XMLID_324_" class="st1" d="M61.63,38.835v-2.039h-2.199l-0.266-0.452c-0.155-0.263-0.438-0.424-0.743-0.424h-0.553
		v-1.766h0.037c0.249,0,0.452-0.202,0.452-0.452v-0.087c0-0.249-0.202-0.452-0.452-0.452h-1.213c-0.249,0-0.452,0.202-0.452,0.452
		v0.087c0,0.249,0.202,0.452,0.452,0.452h0.037v1.766h-0.553c-0.305,0-0.588,0.161-0.743,0.424l-0.266,0.452h-8.872l-0.266-0.452
		c-0.155-0.263-0.438-0.424-0.743-0.424h-0.553v-1.766h0.037c0.249,0,0.452-0.202,0.452-0.452v-0.087
		c0-0.249-0.202-0.452-0.452-0.452h-1.213c-0.249,0-0.452,0.202-0.452,0.452v0.087c0,0.249,0.202,0.452,0.452,0.452h0.037v1.766
		h-0.553c-0.305,0-0.588,0.161-0.743,0.424l-0.266,0.452h-8.872l-0.266-0.452c-0.155-0.263-0.438-0.424-0.743-0.424h-0.553v-1.766
		h0.037c0.249,0,0.452-0.202,0.452-0.452v-0.087c0-0.249-0.202-0.452-0.452-0.452h-1.213c-0.249,0-0.452,0.202-0.452,0.452v0.087
		c0,0.249,0.202,0.452,0.452,0.452h0.037v1.766h-0.553c-0.305,0-0.588,0.161-0.743,0.424l-0.266,0.452h-3.5v-7.057h0.436v-0.285
		l-1.704-3.46v3.745h0.436v7.057H20.65v-7.057h0.436v-3.875h-0.844h-0.335v2.842c-0.024,0.061-0.046,0.116-0.07,0.177l-0.235,0.249
		c0.175,0.114,0.298,0.302,0.298,0.525c0,0.108-0.034,0.205-0.081,0.294v6.845h-2.124v2.039h5.507l0,3.566H23v0.872h1.34V42.4
		h-0.202v-3.566h16.549V42.4h-0.202v0.872h1.34V42.4h-0.202v-3.566h16.549V42.4h-0.202v0.872h1.34V42.4h-0.202v-3.566H61.63z
		 M40.765,38.073h-7.106c-0.143,0-0.258-0.116-0.258-0.258c0-0.143,0.116-0.258,0.258-0.258h7.106c0.143,0,0.258,0.116,0.258,0.258
		C41.023,37.958,40.907,38.073,40.765,38.073z M54.137,38.073h-7.106c-0.143,0-0.258-0.116-0.258-0.258
		c0-0.143,0.116-0.258,0.258-0.258h7.106c0.143,0,0.258,0.116,0.258,0.258C54.395,37.958,54.279,38.073,54.137,38.073z"/>
	<path id="XMLID_326_" class="st1" d="M22.143,42.57c0.212-0.038,0.412-0.106,0.605-0.187c0.008-0.115,0.086-0.211,0.196-0.235
		l0-1.027C22.805,41.674,22.529,42.174,22.143,42.57z"/>
	<polygon id="XMLID_327_" class="st1" points="30.874,29.914 32.638,31.678 33.399,30.916 33.399,30.916 31.589,29.106 	"/>
	<path id="XMLID_328_" class="st1" d="M33.11,32.15c0.21,0.21,0.551,0.21,0.761,0c0.21-0.21,0.21-0.551,0-0.761l-0.289-0.289
		c0,0,0,0,0,0l-0.761,0.761L33.11,32.15z"/>
	<rect id="XMLID_330_" x="3.301" y="35.246" class="st1" width="5.54" height="2.07"/>
	<path id="XMLID_341_" class="st1" d="M11.722,34.229h5.441l-0.11-0.269c-0.122-0.3-0.413-0.495-0.737-0.495H4.311
		c-0.323,0-0.615,0.196-0.737,0.495l-0.11,0.269h0.973C5.742,34.225,7.955,34.224,11.722,34.229z"/>
	<path id="XMLID_343_" class="st1" d="M11.034,38.835h6.398v-3.563c-2.933-0.005-5.861-0.01-8.332-0.011v2.185
		c0,0.071-0.058,0.129-0.129,0.129H3.965l5.412,0.965V42.4H9.176v0.872h1.34V42.4h-0.202v-3.694L11.034,38.835z"/>
	<path id="XMLID_344_" class="st1" d="M17.961,35.015L17.961,35.015c0.143,0,0.258-0.115,0.259-0.258
		c0-0.143-0.115-0.259-0.258-0.259C7.871,34.477,2.698,34.479,2.587,34.504c-0.139,0.031-0.242,0.171-0.211,0.311
		c0.027,0.121,0.123,0.204,0.239,0.204c0.018,0,0.036-0.002,0.055-0.006C3,34.99,12.816,35.004,17.961,35.015z"/>
	<path id="XMLID_346_" class="st1" d="M12.85,29.019h0.393l-0.086-0.097h-1.268v0.711h0.328
		C12.23,29.293,12.507,29.019,12.85,29.019z"/>
	<path id="XMLID_347_" class="st1" d="M19.261,29.019c0.027,0,0.05,0.012,0.077,0.016l0.31-0.33v-3.1h4.579l2.067,4.199h4.332
		l0.973-1.098l-0.072-2.901c-0.005-0.213-0.081-0.419-0.214-0.586l-1.367-1.704c-0.185-0.231-0.465-0.365-0.761-0.365H15.723
		c-0.296,0-0.575,0.134-0.761,0.365l-1.367,1.704c-0.134,0.167-0.209,0.372-0.214,0.586l-0.072,2.901l0.278,0.314H19.261z"/>
	<path id="XMLID_349_" class="st1" d="M12.816,29.278c-0.191,0-0.346,0.155-0.346,0.346v0.067c0,0.191,0.155,0.346,0.346,0.346
		h6.478c0.191,0,0.346-0.155,0.346-0.346v-0.067c0-0.191-0.155-0.346-0.346-0.346H12.816z"/>
	<path id="XMLID_350_" class="st1" d="M24.397,39.093l0,1.486c0.087-0.276,0.143-0.566,0.143-0.871c0-0.214-0.036-0.417-0.083-0.616
		H24.397z"/>
	<path id="XMLID_353_" class="st1" d="M22.488,39.093l-5.235,0.01c-0.184,0.381-0.291,0.805-0.291,1.256
		c0,1.609,1.304,2.913,2.913,2.913c1.609,0,2.913-1.304,2.913-2.913C22.789,39.903,22.675,39.477,22.488,39.093z M19.876,41.345
		c-0.545,0-0.986-0.442-0.986-0.986c0-0.545,0.442-0.986,0.986-0.986c0.545,0,0.986,0.441,0.986,0.986
		C20.862,40.904,20.42,41.345,19.876,41.345z"/>
</g>
</svg>
